<?xml version="1.0" standalone="no"?>
<!DOCTYPE svg PUBLIC "-//W3C//DTD SVG 20010904//EN"
 "http://www.w3.org/TR/2001/REC-SVG-20010904/DTD/svg10.dtd">
<svg version="1.0" xmlns="http://www.w3.org/2000/svg"
 width="500.000000pt" height="500.000000pt" viewBox="0 0 500.000000 500.000000"
 preserveAspectRatio="xMidYMid meet">

<g transform="translate(0.000000,500.000000) scale(0.100000,-0.100000)"
fill="#000000" stroke="none">
<path d="M0 2500 l0 -2500 2500 0 2500 0 0 2500 0 2500 -2500 0 -2500 0 0
-2500z m2210 1316 c0 -3 -4 -8 -10 -11 -5 -3 -10 -1 -10 4 0 6 5 11 10 11 6 0
10 -2 10 -4z m190 -60 c0 -11 -19 -15 -25 -6 -3 5 1 10 9 10 9 0 16 -2 16 -4z
m550 -26 c0 -5 -4 -10 -10 -10 -5 0 -10 5 -10 10 0 6 5 10 10 10 6 0 10 -4 10
-10z m-350 -45 c143 0 202 -4 260 -18 90 -21 224 -64 264 -84 24 -12 30 -13
37 -1 7 10 9 9 9 -4 0 -11 17 -26 43 -39 202 -103 394 -296 512 -514 43 -81
95 -212 95 -243 0 -27 -15 -1 -40 68 -12 36 -44 108 -71 161 -40 77 -53 95
-71 95 -11 -1 -23 5 -26 13 -3 10 0 12 12 8 9 -4 16 -4 16 0 0 15 -52 73 -66
73 -7 0 -14 8 -14 18 -1 24 -28 57 -48 57 -10 0 -16 8 -16 18 1 10 -29 43 -75
80 -101 84 -153 119 -252 168 -68 34 -86 39 -101 30 -10 -6 -24 -8 -30 -5 -8
5 -5 10 8 15 17 6 16 8 -11 19 -16 7 -44 13 -61 14 -18 1 -38 6 -45 12 -19 15
-59 24 -59 13 0 -13 -28 -11 -32 2 -2 6 -26 15 -53 20 -72 11 -309 9 -385 -5
-56 -9 -65 -14 -68 -33 -2 -13 -10 -23 -18 -23 -17 0 -18 12 -1 29 10 11 9 13
-5 8 -9 -3 -33 -9 -52 -13 -26 -4 -36 -11 -36 -25 0 -20 -26 -27 -32 -9 -5 17
-66 -8 -64 -27 0 -9 -5 -18 -11 -20 -7 -3 -13 3 -13 11 0 14 -9 12 -52 -10
-85 -42 -208 -128 -278 -193 l-65 -61 80 54 c146 98 342 182 468 201 26 4 47
12 47 17 0 6 7 8 15 4 26 -10 105 5 105 20 0 18 17 18 27 0 11 -19 253 -27
253 -8 0 6 5 12 10 12 6 0 10 -6 10 -14 0 -16 13 -21 73 -32 30 -5 37 -3 37
10 0 9 8 16 21 16 15 0 19 -5 17 -22 -3 -19 10 -25 122 -63 155 -51 185 -64
285 -122 155 -90 309 -236 411 -389 58 -87 134 -240 134 -270 0 -29 -16 -5
-50 78 -23 56 -35 75 -46 71 -10 -4 -12 0 -8 11 8 21 -56 128 -73 122 -12 -5
-17 5 -14 31 1 6 -36 50 -81 97 -63 65 -87 84 -97 77 -12 -7 -5 -20 34 -63 26
-29 68 -84 93 -121 45 -69 132 -245 132 -266 0 -25 -19 -9 -31 27 -22 69 -48
112 -64 106 -17 -7 -20 7 -5 22 21 21 -143 241 -253 338 -75 66 -157 126 -174
126 -7 0 -24 11 -38 24 -34 32 -180 94 -268 114 -52 12 -121 16 -252 16 -155
0 -193 -3 -275 -23 -113 -28 -195 -58 -292 -107 -108 -54 -150 -85 -138 -99
13 -16 0 -28 -17 -14 -10 9 -29 -2 -83 -46 -133 -109 -223 -225 -311 -402 -36
-72 -59 -101 -59 -76 0 15 95 199 122 237 15 21 28 47 28 58 0 10 7 21 16 25
9 3 59 49 112 102 65 64 131 118 199 161 59 37 101 70 98 77 -6 16 15 29 24
14 5 -8 22 -5 57 10 43 18 50 25 46 44 l-4 23 -51 -18 c-29 -9 -82 -31 -119
-48 -56 -25 -67 -34 -61 -49 6 -15 4 -16 -9 -5 -13 10 -27 5 -89 -38 -91 -61
-113 -80 -122 -102 -3 -10 -12 -18 -20 -18 -15 0 -127 -114 -127 -129 0 -6
-13 -30 -30 -53 -16 -24 -45 -81 -65 -128 -19 -47 -39 -86 -46 -89 -12 -4 -7
18 17 77 25 62 2 31 -32 -42 -32 -71 -54 -101 -54 -75 0 14 111 230 126 244 5
6 37 46 69 90 33 44 85 110 117 147 32 36 58 74 58 83 0 9 4 13 10 10 5 -3 34
14 64 39 169 138 366 233 553 269 44 8 63 16 63 27 0 9 3 11 8 5 4 -6 80 -10
192 -10z m-460 -5 c0 -5 -4 -10 -10 -10 -5 0 -10 5 -10 10 0 6 5 10 10 10 6 0
10 -4 10 -10z m1055 -40 c3 -5 1 -10 -4 -10 -6 0 -11 5 -11 10 0 6 2 10 4 10
3 0 8 -4 11 -10z m-65 -160 c0 -5 -2 -10 -4 -10 -3 0 -8 5 -11 10 -3 6 -1 10
4 10 6 0 11 -4 11 -10z m150 -70 c0 -5 -5 -10 -11 -10 -5 0 -7 5 -4 10 3 6 8
10 11 10 2 0 4 -4 4 -10z m-1600 -20 c0 -5 -7 -10 -15 -10 -8 0 -15 5 -15 10
0 6 7 10 15 10 8 0 15 -4 15 -10z m-200 -40 c0 -5 -5 -10 -11 -10 -5 0 -7 5
-4 10 3 6 8 10 11 10 2 0 4 -4 4 -10z m2160 -40 c0 -5 -4 -10 -10 -10 -5 0
-10 5 -10 10 0 6 5 10 10 10 6 0 10 -4 10 -10z m-1830 -40 c0 -5 -7 -10 -15
-10 -8 0 -15 5 -15 10 0 6 7 10 15 10 8 0 15 -4 15 -10z m-310 -70 c0 -5 -7
-10 -16 -10 -8 0 -12 5 -9 10 3 6 10 10 16 10 5 0 9 -4 9 -10z m210 -10 c0 -5
-4 -10 -10 -10 -5 0 -10 5 -10 10 0 6 5 10 10 10 6 0 10 -4 10 -10z m2080 -96
c0 -8 -4 -12 -10 -9 -5 3 -10 10 -10 16 0 5 5 9 10 9 6 0 10 -7 10 -16z
m-1505 -227 c7 -22 1 -85 -23 -255 -39 -277 -52 -388 -52 -469 0 -61 -12 -89
-24 -57 -10 26 22 398 49 564 28 176 31 224 13 218 -22 -8 -95 -157 -137 -282
-42 -124 -73 -186 -91 -186 -24 0 -32 44 -25 146 4 57 4 104 1 104 -14 0 -58
-117 -92 -244 -39 -148 -62 -208 -78 -203 -6 2 -18 17 -26 33 -19 37 -20 293
-1 409 24 154 54 256 71 239 5 -5 0 -43 -11 -89 -26 -107 -49 -310 -48 -415 1
-92 11 -151 21 -135 4 6 25 78 48 160 56 198 99 289 130 270 6 -4 10 -55 10
-128 1 -82 4 -117 10 -106 5 9 29 72 54 141 69 195 139 323 174 316 9 -2 21
-16 27 -31z m781 -154 c-3 -27 -8 -104 -11 -173 -5 -114 -4 -122 9 -89 53 135
96 159 96 52 0 -45 16 -40 54 17 31 46 48 41 22 -7 -22 -42 -56 -75 -74 -71
-11 2 -21 20 -28 47 l-10 44 -21 -49 c-12 -27 -26 -68 -32 -91 -21 -77 -49
-44 -53 61 -2 36 -5 66 -7 66 -3 0 -20 -10 -38 -22 -28 -20 -33 -29 -33 -63 0
-48 -26 -102 -60 -127 -35 -26 -60 -15 -60 26 0 32 16 62 57 107 l23 25 -28
27 -29 28 -40 -41 c-51 -50 -85 -53 -112 -10 -18 30 -18 30 -36 10 -37 -41
-73 -19 -82 51 l-6 41 -28 -45 c-34 -56 -49 -65 -56 -38 -5 19 -7 19 -29 4
-30 -19 -70 -10 -79 17 -9 27 -17 25 -37 -10 -35 -61 -71 -21 -43 47 29 70 74
100 103 71 20 -20 14 -28 -17 -22 -31 6 -38 -1 -61 -60 -15 -40 -3 -31 20 15
24 46 44 47 48 1 5 -47 27 -60 60 -35 15 11 32 33 37 49 26 76 58 87 36 13
-16 -53 -9 -59 17 -14 30 50 50 46 58 -14 10 -75 19 -82 54 -43 17 18 30 42
30 53 0 26 17 59 31 59 6 0 8 -21 3 -59 -6 -57 5 -101 26 -101 13 0 90 80 90
93 0 16 41 57 57 57 20 0 16 -24 -7 -38 -27 -17 -25 -26 14 -55 l33 -26 47 32
c39 28 46 37 46 67 0 31 5 60 25 148 3 12 10 22 16 22 8 0 10 -15 5 -47z
m-319 1 c8 -21 -13 -42 -28 -27 -13 13 -5 43 11 43 6 0 13 -7 17 -16z m1048
-504 c3 -5 -1 -10 -9 -10 -9 0 -16 5 -16 10 0 6 4 10 9 10 6 0 13 -4 16 -10z
m-2465 -25 c10 -12 10 -15 -4 -15 -9 0 -16 7 -16 15 0 8 2 15 4 15 2 0 9 -7
16 -15z m105 -65 c3 -11 13 -20 22 -20 11 0 14 -6 9 -25 -4 -16 3 -47 19 -87
28 -70 115 -218 127 -218 4 0 8 -6 8 -12 0 -7 25 -41 56 -76 43 -48 59 -60 66
-50 8 10 9 9 5 -3 -9 -29 110 -131 241 -205 103 -59 111 -55 15 8 -110 73
-276 242 -344 350 -33 53 -61 88 -73 90 -11 2 -22 9 -24 17 -3 10 0 12 12 8
20 -8 20 -8 -5 50 -34 78 -39 93 -31 93 4 0 26 -39 47 -87 81 -181 222 -358
378 -473 93 -70 245 -150 338 -178 200 -62 482 -47 704 37 11 4 64 29 118 56
123 60 179 99 171 120 -5 11 0 14 16 13 18 -2 41 18 104 93 107 127 156 210
156 266 0 23 4 45 10 48 6 3 10 -4 10 -17 0 -18 2 -20 10 -8 5 8 10 25 10 38
0 12 4 22 9 22 5 0 15 16 21 35 6 19 16 35 21 35 12 0 6 -23 -32 -112 -42
-101 -12 -85 38 20 23 48 49 105 58 126 8 22 18 37 20 34 9 -8 -7 -88 -19
-101 -6 -7 -21 -34 -34 -62 -13 -27 -44 -82 -68 -121 -24 -40 -44 -83 -44 -98
0 -19 -5 -26 -20 -26 -23 0 -106 -86 -102 -106 1 -7 -7 -16 -19 -19 -11 -4
-64 -41 -117 -82 -114 -90 -150 -113 -257 -170 -92 -49 -87 -54 17 -17 106 38
188 82 188 100 0 9 7 14 18 12 40 -7 194 114 299 234 75 85 122 156 173 261
24 48 47 87 52 87 11 0 10 -7 -3 -32 -9 -16 -7 -24 10 -39 42 -39 19 -93 -37
-87 -27 3 -34 -4 -90 -87 -136 -203 -344 -368 -569 -450 -37 -14 -77 -30 -88
-34 -49 -22 -368 -74 -482 -79 -68 -2 -123 -9 -123 -13 0 -13 -28 -11 -32 2
-2 6 -42 17 -88 25 -177 30 -365 106 -500 202 -155 109 -305 282 -387 447 -50
98 -97 225 -84 225 5 0 21 -35 36 -77 119 -341 405 -622 748 -736 141 -48 345
-75 457 -62 34 4 60 9 58 10 -2 2 -41 8 -88 15 -118 16 -129 18 -182 34 -27 8
-48 10 -48 5 0 -13 -17 -11 -32 4 -7 8 -45 24 -83 37 -38 13 -95 34 -125 48
-30 14 -71 26 -90 26 -27 1 -35 5 -34 19 2 20 -89 87 -118 87 -10 0 -18 5 -18
12 0 6 -44 57 -98 112 -109 112 -160 182 -219 301 -49 96 -96 225 -83 225 5 0
12 -9 15 -20z m2415 -14 c0 -12 -10 -14 -38 -7 -2 1 0 6 3 11 9 15 35 12 35
-4z m-2250 -26 c0 -5 -4 -10 -10 -10 -5 0 -10 5 -10 10 0 6 5 10 10 10 6 0 10
-4 10 -10z m1980 6 c0 -11 -19 -15 -25 -6 -3 5 1 10 9 10 9 0 16 -2 16 -4z
m60 -20 c0 -3 -4 -8 -10 -11 -5 -3 -10 -1 -10 4 0 6 5 11 10 11 6 0 10 -2 10
-4z m-2230 -31 c9 -11 10 -19 2 -27 -14 -14 -32 -1 -32 23 0 23 13 25 30 4z
m2010 -19 c0 -3 -4 -8 -10 -11 -5 -3 -10 -1 -10 4 0 6 5 11 10 11 6 0 10 -2
10 -4z m-1884 -34 c-9 -9 -37 8 -31 18 5 8 11 7 21 -1 8 -6 12 -14 10 -17z
m-696 -52 c0 -5 -9 -10 -20 -10 -27 0 -25 -16 3 -25 l22 -8 -22 -4 c-15 -3
-23 -12 -23 -24 0 -10 -4 -19 -10 -19 -5 0 -10 23 -10 50 0 49 1 50 30 50 17
0 30 -4 30 -10z m142 -40 c5 -53 32 -47 36 8 4 52 22 56 22 5 0 -51 -11 -65
-46 -61 -27 3 -29 6 -32 53 -4 57 14 53 20 -5z m218 -30 c10 0 22 -4 25 -10 4
-6 -8 -10 -29 -10 -36 0 -36 0 -36 43 0 57 14 71 18 18 3 -32 7 -41 22 -41z
m180 0 c10 0 22 -4 25 -10 4 -6 -8 -10 -29 -10 -36 0 -36 0 -36 43 0 57 14 71
18 18 3 -32 7 -41 22 -41z m350 70 c12 -8 9 -10 -12 -10 -35 0 -36 -18 -2 -26
32 -8 30 -47 -3 -52 -13 -2 -23 -8 -23 -13 0 -5 -4 -9 -10 -9 -5 0 -10 9 -10
21 0 15 4 19 19 14 30 -9 36 14 7 25 -16 6 -26 17 -26 29 0 28 32 39 60 21z
m200 0 c0 -5 -7 -10 -15 -10 -11 0 -15 -11 -15 -40 0 -22 -4 -40 -10 -40 -5 0
-10 18 -10 40 0 29 -4 40 -15 40 -8 0 -15 5 -15 10 0 6 18 10 40 10 22 0 40
-4 40 -10z m188 -37 c11 -26 19 -49 17 -51 -2 -2 -12 3 -24 10 -17 11 -25 11
-42 0 -12 -7 -22 -12 -24 -10 -6 5 37 98 45 98 4 0 17 -21 28 -47z m196 41
c25 -10 19 -22 -9 -16 -17 3 -27 -1 -31 -13 -10 -26 9 -51 37 -47 18 3 21 1
13 -8 -20 -20 -58 -8 -68 22 -8 22 -6 32 9 48 20 22 25 23 49 14z m180 -15
c11 12 24 21 29 21 6 0 0 -11 -13 -25 l-23 -25 23 -25 c29 -31 15 -33 -17 -3
l-23 21 0 -21 c0 -12 -4 -22 -10 -22 -12 0 -14 83 -3 94 5 4 10 -2 13 -14 l5
-22 19 21z m358 9 c40 -33 19 -88 -33 -88 -28 0 -29 1 -29 50 0 46 2 50 23 50
13 0 30 -6 39 -12z m208 2 c0 -5 -9 -10 -20 -10 -11 0 -20 -4 -20 -10 0 -5 9
-10 20 -10 11 0 20 -4 20 -10 0 -5 -9 -10 -20 -10 -27 0 -25 -28 3 -33 16 -3
13 -5 -10 -6 l-33 -1 0 50 c0 49 1 50 30 50 17 0 30 -4 30 -10z m147 -27 l16
-38 13 32 c17 39 40 57 29 22 -12 -38 -35 -79 -44 -79 -9 0 -41 71 -41 90 0
21 12 9 27 -27z m243 27 c0 -5 -9 -10 -20 -10 -11 0 -20 -4 -20 -10 0 -5 9
-10 20 -10 21 0 28 -24 10 -35 -5 -3 -10 -1 -10 4 0 6 -4 11 -10 11 -20 0 -9
-29 13 -33 16 -3 13 -5 -10 -6 l-33 -1 0 50 c0 49 1 50 30 50 17 0 30 -4 30
-10z m575 0 c4 -6 -5 -10 -19 -10 -14 0 -26 -4 -26 -10 0 -5 9 -10 20 -10 11
0 20 -4 20 -10 0 -5 -9 -10 -20 -10 -30 0 -24 -28 8 -33 22 -3 20 -4 -10 -6
l-38 -1 0 43 c0 24 3 47 7 50 10 11 51 8 58 -3z m184 1 c9 -6 12 -18 8 -32 -3
-12 -2 -31 4 -41 6 -12 6 -18 0 -18 -6 0 -15 9 -21 20 -6 11 -15 20 -20 20 -6
0 -10 -9 -10 -20 0 -11 -4 -20 -10 -20 -5 0 -10 23 -10 50 0 45 2 50 23 50 12
0 28 -4 36 -9z m-657 -93 c-15 -15 -26 -4 -18 18 5 13 9 15 18 6 9 -9 9 -15 0
-24z m-52 -72 c0 -2 -7 -9 -15 -16 -12 -10 -15 -10 -15 4 0 9 7 16 15 16 8 0
15 -2 15 -4z m-1855 -147 c-10 -15 -25 -10 -19 6 4 8 10 12 15 9 5 -3 7 -10 4
-15z m475 -79 c0 -5 -5 -10 -11 -10 -5 0 -7 5 -4 10 3 6 8 10 11 10 2 0 4 -4
4 -10z m950 6 c0 -11 -19 -15 -25 -6 -3 5 1 10 9 10 9 0 16 -2 16 -4z m30 -56
c0 -5 -5 -10 -11 -10 -5 0 -7 5 -4 10 3 6 8 10 11 10 2 0 4 -4 4 -10z m-1085
-10 c3 -5 2 -10 -4 -10 -5 0 -13 5 -16 10 -3 6 -2 10 4 10 5 0 13 -4 16 -10z
m825 -30 c0 -5 -4 -10 -10 -10 -5 0 -10 5 -10 10 0 6 5 10 10 10 6 0 10 -4 10
-10z m-732 -19 c11 -7 11 -9 -1 -14 -16 -6 -27 0 -27 15 0 10 11 10 28 -1z
m926 -43 c-7 -10 -34 -10 -34 0 0 4 5 13 12 20 9 9 14 9 19 0 4 -7 5 -16 3
-20z m-814 -23 c0 -8 -7 -15 -15 -15 -26 0 -18 20 13 29 1 1 2 -6 2 -14z m690
0 c0 -8 -7 -15 -15 -15 -26 0 -18 20 13 29 1 1 2 -6 2 -14z m-100 -35 c0 -5
-7 -10 -15 -10 -8 0 -15 5 -15 10 0 6 7 10 15 10 8 0 15 -4 15 -10z"/>
<path d="M2315 3539 c-72 -13 -135 -31 -135 -38 0 -3 4 -12 8 -19 7 -10 28 -7
100 12 87 23 214 42 327 49 28 2 -17 4 -100 4 -82 0 -172 -3 -200 -8z"/>
<path d="M3220 3368 c3 -3 32 -27 65 -52 33 -25 79 -62 103 -82 35 -30 42 -33
42 -18 0 12 -23 35 -58 60 -55 39 -162 104 -152 92z"/>
<path d="M2865 2393 c-26 -39 -33 -77 -13 -71 28 10 73 108 49 108 -6 0 -22
-17 -36 -37z"/>
<path d="M3778 1895 c-10 -21 -9 -28 2 -35 22 -14 41 0 38 28 -4 35 -25 39
-40 7z"/>
<path d="M3542 1760 c-28 -44 -50 -80 -48 -80 5 0 78 97 101 133 9 15 13 27 8
27 -6 0 -33 -36 -61 -80z"/>
<path d="M2923 1296 c-40 -11 -73 -25 -73 -30 0 -13 49 -1 111 28 65 30 57 30
-38 2z"/>
<path d="M2784 1264 c-6 -3 -53 -8 -105 -13 l-94 -8 113 -2 c93 -1 112 1 112
14 0 15 -6 17 -26 9z"/>
<path d="M2080 1890 c0 -5 5 -10 10 -10 6 0 10 5 10 10 0 6 -4 10 -10 10 -5 0
-10 -4 -10 -10z"/>
<path d="M2810 1891 c0 -25 4 -31 21 -31 16 0 20 5 17 27 -2 17 -10 29 -20 31
-14 3 -18 -3 -18 -27z"/>
<path d="M4170 1905 c0 -10 7 -15 18 -13 21 4 19 22 -2 26 -10 2 -16 -3 -16
-13z"/>
</g>
</svg>
